# xmcd
#
# Track frame offsets: 
#        150
#        12256
#        24448
#        36557
#        48920
#        61298
#        72248
#        84432
#        98834
#        111797
#
# Disc length: 1653 seconds
#
# Revision: 0
# Processed by: cddbd v1.5.2PL0 Copyright (c) Steve Scherf et al.
# Submitted via: ExactAudioCopy v0.99pb4
#
DISCID=7b06730a
DTITLE=Platters, The - Best of R&B Soul Stars
DYEAR=2005
DGENRE=R&B
TTITLE0=The Great Pretender
TTITLE1=My Prayer
TTITLE2=Smoke Gets in Your Eyes
TTITLE3=Twilight Time
TTITLE4=Only You (And You Alone)
TTITLE5=(You've Got) The Magic Touch
TTITLE6=You'll Never Know
TTITLE7=Harbor Lights
TTITLE8=I'm Sorry
TTITLE9=With this Ring
EXTD=
EXTT0=
EXTT1=
EXTT2=
EXTT3=
EXTT4=
EXTT5=
EXTT6=
EXTT7=
EXTT8=
EXTT9=
PLAYORDER=
